<svg width="106" height="107" viewBox="0 0 106 107" fill="none" xmlns="http://www.w3.org/2000/svg">
<path d="M41.9584 41.6855V65.3146C41.9584 67.0077 42.7313 68.2959 44.2771 69.1792C45.8229 70.0626 47.332 69.989 48.8042 68.9584L67.1334 57.2542C68.532 56.3709 69.2313 55.1195 69.2313 53.5001C69.2313 51.8806 68.532 50.6292 67.1334 49.7459L48.8042 38.0417C47.332 37.0112 45.8229 36.9376 44.2771 37.8209C42.7313 38.7042 41.9584 39.9924 41.9584 41.6855ZM53 97.6667C46.8903 97.6667 41.1486 96.5066 35.775 94.1864C30.4014 91.8691 25.7271 88.723 21.7521 84.748C17.7771 80.773 14.631 76.0987 12.3137 70.7251C9.99346 65.3514 8.83334 59.6098 8.83334 53.5001C8.83334 47.3903 9.99346 41.6487 12.3137 36.2751C14.631 30.9014 17.7771 26.2271 21.7521 22.2521C25.7271 18.2771 30.4014 15.1295 35.775 12.8093C41.1486 10.492 46.8903 9.33337 53 9.33337C59.1098 9.33337 64.8514 10.492 70.225 12.8093C75.5986 15.1295 80.273 18.2771 84.248 22.2521C88.223 26.2271 91.3691 30.9014 93.6864 36.2751C96.0066 41.6487 97.1667 47.3903 97.1667 53.5001C97.1667 59.6098 96.0066 65.3514 93.6864 70.7251C91.3691 76.0987 88.223 80.773 84.248 84.748C80.273 88.723 75.5986 91.8691 70.225 94.1864C64.8514 96.5066 59.1098 97.6667 53 97.6667Z" fill="#484848"/>
</svg>
