<svg width="141" height="142" viewBox="0 0 141 142" fill="none" xmlns="http://www.w3.org/2000/svg">
<path d="M116.178 133.128L106.925 124.022H111.625C111.625 125.686 111.061 127.081 109.933 128.205C108.809 129.333 107.415 129.897 105.75 129.897C104.085 129.897 102.691 129.333 101.567 128.205C100.439 127.081 99.875 125.686 99.875 124.022V116.972L8.07813 25.175C6.90313 24 6.33913 22.6037 6.38613 20.9861C6.43705 19.3725 7.05001 17.9781 8.22501 16.8031C9.40001 15.6281 10.7963 15.0406 12.4139 15.0406C14.0276 15.0406 15.4219 15.6281 16.5969 16.8031L124.55 124.903C125.725 126.078 126.313 127.449 126.313 129.016C126.313 130.582 125.725 131.953 124.55 133.128C123.375 134.303 121.981 134.891 120.367 134.891C118.749 134.891 117.353 134.303 116.178 133.128ZM111.625 95.2344L99.4344 83.0438L82.25 65.8594V41.625C82.25 33.4979 85.1151 26.5713 90.8451 20.8451C96.5713 15.115 103.498 12.25 111.625 12.25V95.2344ZM70.5 54.1094L58.75 42.3594V18.125C58.75 16.4604 59.314 15.0641 60.442 13.9361C61.5661 12.812 62.9604 12.25 64.625 12.25C66.2896 12.25 67.6859 12.812 68.8139 13.9361C69.938 15.0641 70.5 16.4604 70.5 18.125V54.1094ZM52.875 36.4844L41.125 24.7344V18.125C41.125 16.4604 41.6871 15.0641 42.8111 13.9361C43.9391 12.812 45.3354 12.25 47 12.25C48.6646 12.25 50.0609 12.812 51.1889 13.9361C52.313 15.0641 52.875 16.4604 52.875 18.125V36.4844ZM35.25 18.8594L28.6406 12.25C30.5011 12.25 32.0677 12.8865 33.3406 14.1594C34.6136 15.4323 35.25 16.999 35.25 18.8594ZM41.125 123.875V75.9938C36.1313 74.6229 31.9463 71.8813 28.5701 67.7688C25.1901 63.6563 23.5 58.8583 23.5 53.375V23.8531L35.25 35.6031V53.375H41.125V41.4781L52.875 53.2281V53.375H53.0219L66.2406 66.5938C64.674 68.8458 62.7411 70.7787 60.442 72.3924C58.139 74.01 55.6167 75.2104 52.875 75.9938V123.875C52.875 125.54 52.313 126.934 51.1889 128.058C50.0609 129.186 48.6646 129.75 47 129.75C45.3354 129.75 43.9391 129.186 42.8111 128.058C41.6871 126.934 41.125 125.54 41.125 123.875Z" fill="#FE9E0D"/>
</svg>
