<svg width="121" height="120" viewBox="0 0 121 120" fill="none" xmlns="http://www.w3.org/2000/svg">
<path d="M15.5 20C12.8478 20 10.3043 21.0536 8.42893 22.9289C6.55357 24.8043 5.5 27.3478 5.5 30V85H15.5C15.5 88.9782 17.0804 92.7936 19.8934 95.6066C22.7064 98.4197 26.5218 100 30.5 100C34.4782 100 38.2936 98.4197 41.1066 95.6066C43.9197 92.7936 45.5 88.9782 45.5 85H75.5C75.5 88.9782 77.0803 92.7936 79.8934 95.6066C82.7064 98.4197 86.5218 100 90.5 100C94.4782 100 98.2936 98.4197 101.107 95.6066C103.92 92.7936 105.5 88.9782 105.5 85H115.5V60L100.5 40H85.5V20M50.5 30L70.5 50L50.5 70V55H20.5V45H50.5M85.5 47.5H98L107.85 60H85.5M30.5 77.5C32.4891 77.5 34.3968 78.2902 35.8033 79.6967C37.2098 81.1032 38 83.0109 38 85C38 86.9891 37.2098 88.8968 35.8033 90.3033C34.3968 91.7098 32.4891 92.5 30.5 92.5C28.5109 92.5 26.6032 91.7098 25.1967 90.3033C23.7902 88.8968 23 86.9891 23 85C23 83.0109 23.7902 81.1032 25.1967 79.6967C26.6032 78.2902 28.5109 77.5 30.5 77.5ZM90.5 77.5C92.4891 77.5 94.3968 78.2902 95.8033 79.6967C97.2098 81.1032 98 83.0109 98 85C98 86.9891 97.2098 88.8968 95.8033 90.3033C94.3968 91.7098 92.4891 92.5 90.5 92.5C88.5109 92.5 86.6032 91.7098 85.1967 90.3033C83.7902 88.8968 83 86.9891 83 85C83 83.0109 83.7902 81.1032 85.1967 79.6967C86.6032 78.2902 88.5109 77.5 90.5 77.5Z" fill="#FE9E0D"/>
</svg>
